<svg width="306" height="63" xmlns="http://www.w3.org/2000/svg" xmlns:xlink="http://www.w3.org/1999/xlink" xml:space="preserve" overflow="hidden"><defs><clipPath id="clip0"><rect x="138" y="59" width="306" height="63"/></clipPath></defs><g clip-path="url(#clip0)" transform="translate(-138 -59)"><path d="M145.836 122 153.673 122 153.673 66.8165C153.673 62.5175 150.165 59.0336 145.836 59.0336L138 59.0336 138 114.217C138 118.516 141.508 122 145.836 122M308.259 121.888 308.259 105.865C305.313 104.246 302.547 99.0422 298.983 88.7358 298.983 88.7358 298.814 88.1998 298.792 88.1217 295.059 77.2458 288.808 59.0336 272.257 59.0336 255.707 59.0336 249.602 76.8549 245.936 87.5075L245.936 87.5075C245.835 87.7421 245.745 87.9877 245.655 88.2445 241.9 99.1539 238.505 106.423 234.086 106.423 230.353 106.423 227.07 101.387 222.798 89.0596 222.798 89.0596 222.595 88.412 222.573 88.345 219.065 78.0944 212.532 59.0225 195.96 59.0225 179.387 59.0225 173.304 76.8438 169.639 87.4964L169.639 87.4964C169.538 87.7309 169.448 87.9765 169.358 88.2333 165.602 99.1427 162.207 106.412 157.788 106.412L157.788 121.989C174.316 121.989 180.5 104.011 184.199 93.2581 184.199 93.2581 184.413 92.6886 184.469 92.5323 188.179 81.7569 191.552 74.5882 195.96 74.5882 201.266 74.5882 206.079 88.5348 207.698 93.2693 207.698 93.2693 207.911 93.9504 207.934 94.0175 211.554 104.48 217.614 121.989 234.086 121.989 250.557 121.989 256.798 104.011 260.485 93.2693 260.485 93.2693 260.699 92.6886 260.755 92.5323 264.466 81.7569 267.839 74.5882 272.235 74.5882 276.631 74.5882 280.083 81.9468 283.883 93.0013 283.883 93.0013 284.052 93.5597 284.085 93.6378 287.582 103.766 293.339 120.414 308.236 121.866M359.776 91.8735 337.255 91.8735C340.876 81.4666 344.204 74.5771 348.51 74.5771 353.367 74.5771 357.819 86.2792 359.765 91.8735M386.625 121.978 386.625 106.401C382.892 106.401 379.62 101.365 375.337 89.0373 375.337 89.0373 375.134 88.3785 375.112 88.3227 371.604 78.0721 365.072 59.0001 348.499 59.0001 331.926 59.0001 325.843 76.8215 322.178 87.4741L322.178 87.4741C322.077 87.7085 321.987 87.9542 321.897 88.211 318.737 97.412 315.814 104 312.34 105.854L312.34 121.866C322.549 120.917 328.508 112.799 332.398 104.458L364.521 104.458C368.579 113.257 375.011 121.967 386.625 121.967M429.204 81.7904C429.204 87.0497 425.763 91.8847 419.152 91.8847L406.267 91.8847 406.267 71.7631 419.152 71.7631C425.763 71.7631 429.204 76.5758 429.204 81.8351M444 81.8351C444 69.5745 435.152 59.0336 419.332 59.0336L398.419 59.0336C394.091 59.0336 390.583 62.5175 390.583 66.8165L390.583 122 398.419 122C402.748 122 406.256 118.516 406.256 114.217L406.256 104.648 420.951 104.648C436.771 104.648 443.989 94.1849 443.989 81.8351" fill="#FFFFFF" fill-rule="evenodd"/></g></svg>